<?xml version="1.0" encoding="UTF-8" standalone="no"?>
<!DOCTYPE svg PUBLIC "-//W3C//DTD SVG 1.1//EN"
 "http://www.w3.org/Graphics/SVG/1.1/DTD/svg11.dtd">
<!-- Generated by graphviz version 7.0.1 (20221109.1506)
 -->
<!-- Title: dependency&#45;cruiser output Pages: 1 -->
<svg width="659pt" height="724pt"
 viewBox="0.00 0.00 659.00 724.00" xmlns="http://www.w3.org/2000/svg" xmlns:xlink="http://www.w3.org/1999/xlink">
<g id="graph0" class="graph" transform="scale(1 1) rotate(0) translate(4 720)">
<title>dependency&#45;cruiser output</title>
<polygon fill="white" stroke="none" points="-4,4 -4,-720 655,-720 655,4 -4,4"/>
<g id="clust1" class="cluster">
<title>cluster_src</title>
<path fill="#ffffff" stroke="black" stroke-width="2" d="M20,-8C20,-8 631,-8 631,-8 637,-8 643,-14 643,-20 643,-20 643,-696 643,-696 643,-702 637,-708 631,-708 631,-708 20,-708 20,-708 14,-708 8,-702 8,-696 8,-696 8,-20 8,-20 8,-14 14,-8 20,-8"/>
<text text-anchor="middle" x="325.5" y="-696.8" font-family="Helvetica,sans-Serif" font-weight="bold" font-size="9.00">src</text>
</g>
<g id="clust2" class="cluster">
<title>cluster_src/lib</title>
<path fill="#ffffff" stroke="black" stroke-width="2" d="M157,-18C157,-18 623,-18 623,-18 629,-18 635,-24 635,-30 635,-30 635,-670 635,-670 635,-676 629,-682 623,-682 623,-682 157,-682 157,-682 151,-682 145,-676 145,-670 145,-670 145,-30 145,-30 145,-24 151,-18 157,-18"/>
<text text-anchor="middle" x="390" y="-670.8" font-family="Helvetica,sans-Serif" font-weight="bold" font-size="9.00">lib</text>
</g>
<g id="clust9" class="cluster">
<title>cluster_src/lib/functions</title>
<path fill="#ffffff" stroke="black" stroke-width="2" d="M537,-43C537,-43 605,-43 605,-43 611,-43 617,-49 617,-55 617,-55 617,-113 617,-113 617,-119 611,-125 605,-125 605,-125 537,-125 537,-125 531,-125 525,-119 525,-113 525,-113 525,-55 525,-55 525,-49 531,-43 537,-43"/>
<text text-anchor="middle" x="571" y="-113.8" font-family="Helvetica,sans-Serif" font-weight="bold" font-size="9.00">functions</text>
</g>
<g id="clust3" class="cluster">
<title>cluster_src/lib/admin</title>
<path fill="#ffffff" stroke="black" stroke-width="2" d="M165,-150C165,-150 615,-150 615,-150 621,-150 627,-156 627,-162 627,-162 627,-644 627,-644 627,-650 621,-656 615,-656 615,-656 165,-656 165,-656 159,-656 153,-650 153,-644 153,-644 153,-162 153,-162 153,-156 159,-150 165,-150"/>
<text text-anchor="middle" x="390" y="-644.8" font-family="Helvetica,sans-Serif" font-weight="bold" font-size="9.00">admin</text>
</g>
<g id="clust4" class="cluster">
<title>cluster_src/lib/admin/functions</title>
<path fill="#ffffff" stroke="black" stroke-width="2" d="M428,-578C428,-578 607,-578 607,-578 613,-578 619,-584 619,-590 619,-590 619,-618 619,-618 619,-624 613,-630 607,-630 607,-630 428,-630 428,-630 422,-630 416,-624 416,-618 416,-618 416,-590 416,-590 416,-584 422,-578 428,-578"/>
<text text-anchor="middle" x="517.5" y="-618.8" font-family="Helvetica,sans-Serif" font-weight="bold" font-size="9.00">functions</text>
</g>
<g id="clust5" class="cluster">
<title>cluster_src/lib/admin/layout</title>
<path fill="#ffffff" stroke="black" stroke-width="2" d="M173,-158C173,-158 505,-158 505,-158 511,-158 517,-164 517,-170 517,-170 517,-558 517,-558 517,-564 511,-570 505,-570 505,-570 173,-570 173,-570 167,-570 161,-564 161,-558 161,-558 161,-170 161,-170 161,-164 167,-158 173,-158"/>
<text text-anchor="middle" x="339" y="-558.8" font-family="Helvetica,sans-Serif" font-weight="bold" font-size="9.00">layout</text>
</g>
<g id="clust6" class="cluster">
<title>cluster_src/lib/admin/layout/modals</title>
<path fill="#ffffff" stroke="black" stroke-width="2" d="M276,-402C276,-402 361,-402 361,-402 367,-402 373,-408 373,-414 373,-414 373,-532 373,-532 373,-538 367,-544 361,-544 361,-544 276,-544 276,-544 270,-544 264,-538 264,-532 264,-532 264,-414 264,-414 264,-408 270,-402 276,-402"/>
<text text-anchor="middle" x="318.5" y="-532.8" font-family="Helvetica,sans-Serif" font-weight="bold" font-size="9.00">modals</text>
</g>
<g id="clust7" class="cluster">
<title>cluster_src/lib/admin/layout/sidebar</title>
<path fill="#ffffff" stroke="black" stroke-width="2" d="M264,-342C264,-342 373,-342 373,-342 379,-342 385,-348 385,-354 385,-354 385,-382 385,-382 385,-388 379,-394 373,-394 373,-394 264,-394 264,-394 258,-394 252,-388 252,-382 252,-382 252,-354 252,-354 252,-348 258,-342 264,-342"/>
<text text-anchor="middle" x="318.5" y="-382.8" font-family="Helvetica,sans-Serif" font-weight="bold" font-size="9.00">sidebar</text>
</g>
<g id="clust8" class="cluster">
<title>cluster_src/lib/admin/layout/svg</title>
<path fill="#ffffff" stroke="black" stroke-width="2" d="M285.5,-166C285.5,-166 351.5,-166 351.5,-166 357.5,-166 363.5,-172 363.5,-178 363.5,-178 363.5,-296 363.5,-296 363.5,-302 357.5,-308 351.5,-308 351.5,-308 285.5,-308 285.5,-308 279.5,-308 273.5,-302 273.5,-296 273.5,-296 273.5,-178 273.5,-178 273.5,-172 279.5,-166 285.5,-166"/>
<text text-anchor="middle" x="318.5" y="-296.8" font-family="Helvetica,sans-Serif" font-weight="bold" font-size="9.00">svg</text>
</g>
<g id="clust10" class="cluster">
<title>cluster_src/lib/layout</title>
<path fill="#ffffff" stroke="black" stroke-width="2" d="M409.5,-26C409.5,-26 492.5,-26 492.5,-26 498.5,-26 504.5,-32 504.5,-38 504.5,-38 504.5,-130 504.5,-130 504.5,-136 498.5,-142 492.5,-142 492.5,-142 409.5,-142 409.5,-142 403.5,-142 397.5,-136 397.5,-130 397.5,-130 397.5,-38 397.5,-38 397.5,-32 403.5,-26 409.5,-26"/>
<text text-anchor="middle" x="451" y="-130.8" font-family="Helvetica,sans-Serif" font-weight="bold" font-size="9.00">layout</text>
</g>
<g id="clust11" class="cluster">
<title>cluster_src/lib/layout/css</title>
<path fill="#ffffff" stroke="black" stroke-width="2" d="M417.5,-34C417.5,-34 484.5,-34 484.5,-34 490.5,-34 496.5,-40 496.5,-46 496.5,-46 496.5,-104 496.5,-104 496.5,-110 490.5,-116 484.5,-116 484.5,-116 417.5,-116 417.5,-116 411.5,-116 405.5,-110 405.5,-104 405.5,-104 405.5,-46 405.5,-46 405.5,-40 411.5,-34 417.5,-34"/>
<text text-anchor="middle" x="451" y="-104.8" font-family="Helvetica,sans-Serif" font-weight="bold" font-size="9.00">css</text>
</g>
<g id="clust12" class="cluster">
<title>cluster_src/routes</title>
<path fill="#ffffff" stroke="black" stroke-width="2" d="M28,-42C28,-42 125,-42 125,-42 131,-42 137,-48 137,-54 137,-54 137,-446 137,-446 137,-452 131,-458 125,-458 125,-458 28,-458 28,-458 22,-458 16,-452 16,-446 16,-446 16,-54 16,-54 16,-48 22,-42 28,-42"/>
<text text-anchor="middle" x="76.5" y="-446.8" font-family="Helvetica,sans-Serif" font-weight="bold" font-size="9.00">routes</text>
</g>
<g id="clust13" class="cluster">
<title>cluster_src/routes/(admin)</title>
<path fill="#ffffff" stroke="black" stroke-width="2" d="M36,-286C36,-286 117,-286 117,-286 123,-286 129,-292 129,-298 129,-298 129,-420 129,-420 129,-426 123,-432 117,-432 117,-432 36,-432 36,-432 30,-432 24,-426 24,-420 24,-420 24,-298 24,-298 24,-292 30,-286 36,-286"/>
<text text-anchor="middle" x="76.5" y="-420.8" font-family="Helvetica,sans-Serif" font-weight="bold" font-size="9.00">(admin)</text>
</g>
<g id="clust14" class="cluster">
<title>cluster_src/routes/(admin)/admin</title>
<path fill="#ffffff" stroke="black" stroke-width="2" d="M44,-294C44,-294 109,-294 109,-294 115,-294 121,-300 121,-306 121,-306 121,-394 121,-394 121,-400 115,-406 109,-406 109,-406 44,-406 44,-406 38,-406 32,-400 32,-394 32,-394 32,-306 32,-306 32,-300 38,-294 44,-294"/>
<text text-anchor="middle" x="76.5" y="-394.8" font-family="Helvetica,sans-Serif" font-weight="bold" font-size="9.00">admin</text>
</g>
<g id="clust15" class="cluster">
<title>cluster_src/routes/(app)</title>
<path fill="#ffffff" stroke="black" stroke-width="2" d="M38,-106C38,-106 115,-106 115,-106 121,-106 127,-112 127,-118 127,-118 127,-266 127,-266 127,-272 121,-278 115,-278 115,-278 38,-278 38,-278 32,-278 26,-272 26,-266 26,-266 26,-118 26,-118 26,-112 32,-106 38,-106"/>
<text text-anchor="middle" x="76.5" y="-266.8" font-family="Helvetica,sans-Serif" font-weight="bold" font-size="9.00">(app)</text>
</g>
<g id="clust16" class="cluster">
<title>cluster_src/routes/(app)/text</title>
<path fill="#ffffff" stroke="black" stroke-width="2" d="M46,-200C46,-200 107,-200 107,-200 113,-200 119,-206 119,-212 119,-212 119,-240 119,-240 119,-246 113,-252 107,-252 107,-252 46,-252 46,-252 40,-252 34,-246 34,-240 34,-240 34,-212 34,-212 34,-206 40,-200 46,-200"/>
<text text-anchor="middle" x="76.5" y="-240.8" font-family="Helvetica,sans-Serif" font-weight="bold" font-size="9.00">text</text>
</g>
<!-- src/app.d.ts -->
<g id="node1" class="node">
<title>src/app.d.ts</title>
<g id="a_node1"><a xlink:href="src/app.d.ts" xlink:title="app.d.ts">
<path fill="#ccffcc" stroke="black" d="M97.5,-34C97.5,-34 55.5,-34 55.5,-34 52.5,-34 49.5,-31 49.5,-28 49.5,-28 49.5,-22 49.5,-22 49.5,-19 52.5,-16 55.5,-16 55.5,-16 97.5,-16 97.5,-16 100.5,-16 103.5,-19 103.5,-22 103.5,-22 103.5,-28 103.5,-28 103.5,-31 100.5,-34 97.5,-34"/>
<text text-anchor="start" x="60" y="-22.8" font-family="Helvetica,sans-Serif" font-size="9.00">app.d.ts</text>
</a>
</g>
</g>
<!-- src/lib/admin/functions/stores.ts -->
<g id="node2" class="node">
<title>src/lib/admin/functions/stores.ts</title>
<g id="a_node2"><a xlink:href="src/lib/admin/functions/stores.ts" xlink:title="stores.ts">
<path fill="#ddfeff" stroke="black" d="M472,-604C472,-604 430,-604 430,-604 427,-604 424,-601 424,-598 424,-598 424,-592 424,-592 424,-589 427,-586 430,-586 430,-586 472,-586 472,-586 475,-586 478,-589 478,-592 478,-592 478,-598 478,-598 478,-601 475,-604 472,-604"/>
<text text-anchor="start" x="434" y="-592.8" font-family="Helvetica,sans-Serif" font-size="9.00">stores.ts</text>
</a>
</g>
</g>
<!-- src/lib/admin/functions/writableLocal.ts -->
<g id="node3" class="node">
<title>src/lib/admin/functions/writableLocal.ts</title>
<g id="a_node3"><a xlink:href="src/lib/admin/functions/writableLocal.ts" xlink:title="writableLocal.ts">
<path fill="#ddfeff" stroke="black" d="M605,-604C605,-604 537,-604 537,-604 534,-604 531,-601 531,-598 531,-598 531,-592 531,-592 531,-589 534,-586 537,-586 537,-586 605,-586 605,-586 608,-586 611,-589 611,-592 611,-592 611,-598 611,-598 611,-601 608,-604 605,-604"/>
<text text-anchor="start" x="539" y="-592.8" font-family="Helvetica,sans-Serif" font-size="9.00">writableLocal.ts</text>
</a>
</g>
</g>
<!-- src/lib/admin/functions/stores.ts&#45;&gt;src/lib/admin/functions/writableLocal.ts -->
<g id="edge1" class="edge">
<title>src/lib/admin/functions/stores.ts&#45;&gt;src/lib/admin/functions/writableLocal.ts</title>
<path fill="none" stroke="#000000" stroke-width="2" stroke-opacity="0.200000" d="M478.48,-595C491.2,-595 506.85,-595 521.58,-595"/>
<polygon fill="#000000" fill-opacity="0.200000" stroke="#000000" stroke-width="2" stroke-opacity="0.200000" points="521.58,-597.1 527.58,-595 521.58,-592.9 521.58,-597.1"/>
</g>
<!-- src/lib/admin/layout/ColorMode.svelte -->
<g id="node4" class="node">
<title>src/lib/admin/layout/ColorMode.svelte</title>
<g id="a_node4"><a xlink:href="src/lib/admin/layout/ColorMode.svelte" xlink:title="ColorMode.svelte">
<path fill="#febbff" stroke="black" d="M357,-334C357,-334 280,-334 280,-334 277,-334 274,-331 274,-328 274,-328 274,-322 274,-322 274,-319 277,-316 280,-316 280,-316 357,-316 357,-316 360,-316 363,-319 363,-322 363,-322 363,-328 363,-328 363,-331 360,-334 357,-334"/>
<text text-anchor="start" x="282" y="-322.8" font-family="Helvetica,sans-Serif" font-size="9.00">ColorMode.svelte</text>
</a>
</g>
</g>
<!-- src/lib/layout/css/DarkCode.css -->
<g id="node5" class="node">
<title>src/lib/layout/css/DarkCode.css</title>
<g id="a_node5"><a xlink:href="src/lib/layout/css/DarkCode.css" xlink:title="DarkCode.css">
<path fill="#ffffcc" stroke="black" d="M482,-90C482,-90 420,-90 420,-90 417,-90 414,-87 414,-84 414,-84 414,-78 414,-78 414,-75 417,-72 420,-72 420,-72 482,-72 482,-72 485,-72 488,-75 488,-78 488,-78 488,-84 488,-84 488,-87 485,-90 482,-90"/>
<text text-anchor="start" x="422" y="-78.8" font-family="Helvetica,sans-Serif" font-size="9.00">DarkCode.css</text>
</a>
</g>
</g>
<!-- src/lib/admin/layout/ColorMode.svelte&#45;&gt;src/lib/layout/css/DarkCode.css -->
<g id="edge2" class="edge">
<title>src/lib/admin/layout/ColorMode.svelte&#45;&gt;src/lib/layout/css/DarkCode.css</title>
<path fill="none" stroke="#000000" stroke-width="2" stroke-opacity="0.200000" d="M363.28,-323.76C371.59,-321.48 379.42,-317.55 385,-311 396.26,-297.79 386.99,-171.28 393,-155 401.5,-131.99 419.85,-110.34 433.45,-96.47"/>
<polygon fill="#000000" fill-opacity="0.200000" stroke="#000000" stroke-width="2" stroke-opacity="0.200000" points="434.73,-98.16 437.52,-92.45 431.78,-95.17 434.73,-98.16"/>
</g>
<!-- src/lib/layout/css/LightCode.css -->
<g id="node6" class="node">
<title>src/lib/layout/css/LightCode.css</title>
<g id="a_node6"><a xlink:href="src/lib/layout/css/LightCode.css" xlink:title="LightCode.css">
<path fill="#ffffcc" stroke="black" d="M482.5,-60C482.5,-60 419.5,-60 419.5,-60 416.5,-60 413.5,-57 413.5,-54 413.5,-54 413.5,-48 413.5,-48 413.5,-45 416.5,-42 419.5,-42 419.5,-42 482.5,-42 482.5,-42 485.5,-42 488.5,-45 488.5,-48 488.5,-48 488.5,-54 488.5,-54 488.5,-57 485.5,-60 482.5,-60"/>
<text text-anchor="start" x="421.5" y="-48.8" font-family="Helvetica,sans-Serif" font-size="9.00">LightCode.css</text>
</a>
</g>
</g>
<!-- src/lib/admin/layout/ColorMode.svelte&#45;&gt;src/lib/layout/css/LightCode.css -->
<g id="edge3" class="edge">
<title>src/lib/admin/layout/ColorMode.svelte&#45;&gt;src/lib/layout/css/LightCode.css</title>
<path fill="none" stroke="#000000" stroke-width="2" stroke-opacity="0.200000" d="M363.38,-323.84C371.68,-321.56 379.48,-317.6 385,-311 402.47,-290.11 376.02,-87.3 393,-66 396.23,-61.95 400.41,-58.92 405.04,-56.65"/>
<polygon fill="#000000" fill-opacity="0.200000" stroke="#000000" stroke-width="2" stroke-opacity="0.200000" points="405.49,-58.73 410.34,-54.62 403.98,-54.81 405.49,-58.73"/>
</g>
<!-- src/lib/admin/layout/DataTable.svelte -->
<g id="node7" class="node">
<title>src/lib/admin/layout/DataTable.svelte</title>
<g id="a_node7"><a xlink:href="src/lib/admin/layout/DataTable.svelte" xlink:title="DataTable.svelte">
<path fill="#febbff" stroke="black" d="M487.5,-261C487.5,-261 414.5,-261 414.5,-261 411.5,-261 408.5,-258 408.5,-255 408.5,-255 408.5,-249 408.5,-249 408.5,-246 411.5,-243 414.5,-243 414.5,-243 487.5,-243 487.5,-243 490.5,-243 493.5,-246 493.5,-249 493.5,-249 493.5,-255 493.5,-255 493.5,-258 490.5,-261 487.5,-261"/>
<text text-anchor="start" x="416.5" y="-249.8" font-family="Helvetica,sans-Serif" font-size="9.00">DataTable.svelte</text>
</a>
</g>
</g>
<!-- src/lib/functions/stores.ts -->
<g id="node8" class="node">
<title>src/lib/functions/stores.ts</title>
<g id="a_node8"><a xlink:href="src/lib/functions/stores.ts" xlink:title="stores.ts">
<path fill="#ddfeff" stroke="black" d="M592,-99C592,-99 550,-99 550,-99 547,-99 544,-96 544,-93 544,-93 544,-87 544,-87 544,-84 547,-81 550,-81 550,-81 592,-81 592,-81 595,-81 598,-84 598,-87 598,-87 598,-93 598,-93 598,-96 595,-99 592,-99"/>
<text text-anchor="start" x="554" y="-87.8" font-family="Helvetica,sans-Serif" font-size="9.00">stores.ts</text>
</a>
</g>
</g>
<!-- src/lib/admin/layout/DataTable.svelte&#45;&gt;src/lib/functions/stores.ts -->
<g id="edge4" class="edge">
<title>src/lib/admin/layout/DataTable.svelte&#45;&gt;src/lib/functions/stores.ts</title>
<path fill="none" stroke="#000000" stroke-width="2" stroke-opacity="0.200000" d="M458.68,-242.83C477.9,-216.44 533.51,-140.1 558.08,-106.36"/>
<polygon fill="#000000" fill-opacity="0.200000" stroke="#000000" stroke-width="2" stroke-opacity="0.200000" points="559.48,-108.01 561.31,-101.92 556.08,-105.54 559.48,-108.01"/>
</g>
<!-- src/lib/admin/layout/EmptyComponent.svelte -->
<g id="node9" class="node">
<title>src/lib/admin/layout/EmptyComponent.svelte</title>
<g id="a_node9"><a xlink:href="src/lib/admin/layout/EmptyComponent.svelte" xlink:title="EmptyComponent.svelte">
<path fill="#febbff" stroke="black" d="M503,-368C503,-368 399,-368 399,-368 396,-368 393,-365 393,-362 393,-362 393,-356 393,-356 393,-353 396,-350 399,-350 399,-350 503,-350 503,-350 506,-350 509,-353 509,-356 509,-356 509,-362 509,-362 509,-365 506,-368 503,-368"/>
<text text-anchor="start" x="401" y="-356.8" font-family="Helvetica,sans-Serif" font-size="9.00">EmptyComponent.svelte</text>
</a>
</g>
</g>
<!-- src/lib/admin/layout/Footer.svelte -->
<g id="node10" class="node">
<title>src/lib/admin/layout/Footer.svelte</title>
<g id="a_node10"><a xlink:href="src/lib/admin/layout/Footer.svelte" xlink:title="Footer.svelte">
<path fill="#febbff" stroke="black" d="M235,-241C235,-241 178,-241 178,-241 175,-241 172,-238 172,-235 172,-235 172,-229 172,-229 172,-226 175,-223 178,-223 178,-223 235,-223 235,-223 238,-223 241,-226 241,-229 241,-229 241,-235 241,-235 241,-238 238,-241 235,-241"/>
<text text-anchor="start" x="180" y="-229.8" font-family="Helvetica,sans-Serif" font-size="9.00">Footer.svelte</text>
</a>
</g>
</g>
<!-- src/lib/admin/layout/Header.svelte -->
<g id="node11" class="node">
<title>src/lib/admin/layout/Header.svelte</title>
<g id="a_node11"><a xlink:href="src/lib/admin/layout/Header.svelte" xlink:title="Header.svelte">
<path fill="#febbff" stroke="black" d="M237.5,-301C237.5,-301 175.5,-301 175.5,-301 172.5,-301 169.5,-298 169.5,-295 169.5,-295 169.5,-289 169.5,-289 169.5,-286 172.5,-283 175.5,-283 175.5,-283 237.5,-283 237.5,-283 240.5,-283 243.5,-286 243.5,-289 243.5,-289 243.5,-295 243.5,-295 243.5,-298 240.5,-301 237.5,-301"/>
<text text-anchor="start" x="177.5" y="-289.8" font-family="Helvetica,sans-Serif" font-size="9.00">Header.svelte</text>
</a>
</g>
</g>
<!-- src/lib/admin/layout/Header.svelte&#45;&gt;src/lib/admin/functions/stores.ts -->
<g id="edge10" class="edge">
<title>src/lib/admin/layout/Header.svelte&#45;&gt;src/lib/admin/functions/stores.ts</title>
<path fill="none" stroke="#000000" stroke-width="2" stroke-opacity="0.200000" d="M212.97,-301.19C221.43,-315.94 237.39,-346.1 244,-374 248.43,-392.73 239.76,-532.15 252,-547 257.24,-553.35 359.54,-575.84 414.98,-587.65"/>
<polygon fill="#000000" fill-opacity="0.200000" stroke="#000000" stroke-width="2" stroke-opacity="0.200000" points="414.51,-589.69 420.82,-588.88 415.39,-585.58 414.51,-589.69"/>
</g>
<!-- src/lib/admin/layout/Header.svelte&#45;&gt;src/lib/admin/layout/ColorMode.svelte -->
<g id="edge5" class="edge">
<title>src/lib/admin/layout/Header.svelte&#45;&gt;src/lib/admin/layout/ColorMode.svelte</title>
<path fill="none" stroke="#000000" stroke-width="2" stroke-opacity="0.200000" d="M227.13,-301.35C234.77,-304.73 243.67,-308.36 252,-311 256.19,-312.33 260.57,-313.57 264.99,-314.72"/>
<polygon fill="#000000" fill-opacity="0.200000" stroke="#000000" stroke-width="2" stroke-opacity="0.200000" points="264.24,-316.7 270.57,-316.1 265.24,-312.62 264.24,-316.7"/>
</g>
<!-- src/lib/admin/layout/svg/dbLogo.svelte -->
<g id="node12" class="node">
<title>src/lib/admin/layout/svg/dbLogo.svelte</title>
<g id="a_node12"><a xlink:href="src/lib/admin/layout/svg/dbLogo.svelte" xlink:title="dbLogo.svelte">
<path fill="#febbff" stroke="black" d="M349.5,-192C349.5,-192 287.5,-192 287.5,-192 284.5,-192 281.5,-189 281.5,-186 281.5,-186 281.5,-180 281.5,-180 281.5,-177 284.5,-174 287.5,-174 287.5,-174 349.5,-174 349.5,-174 352.5,-174 355.5,-177 355.5,-180 355.5,-180 355.5,-186 355.5,-186 355.5,-189 352.5,-192 349.5,-192"/>
<text text-anchor="start" x="289.5" y="-180.8" font-family="Helvetica,sans-Serif" font-size="9.00">dbLogo.svelte</text>
</a>
</g>
</g>
<!-- src/lib/admin/layout/Header.svelte&#45;&gt;src/lib/admin/layout/svg/dbLogo.svelte -->
<g id="edge6" class="edge">
<title>src/lib/admin/layout/Header.svelte&#45;&gt;src/lib/admin/layout/svg/dbLogo.svelte</title>
<path fill="none" stroke="#000000" stroke-width="2" stroke-opacity="0.200000" d="M238.11,-282.68C240.34,-281.07 242.36,-279.2 244,-277 254.55,-262.86 240.32,-211.23 252,-198 257.39,-191.9 264.7,-188.01 272.49,-185.58"/>
<polygon fill="#000000" fill-opacity="0.200000" stroke="#000000" stroke-width="2" stroke-opacity="0.200000" points="272.8,-187.67 278.13,-184.2 271.8,-183.59 272.8,-187.67"/>
</g>
<!-- src/lib/admin/layout/svg/home.svelte -->
<g id="node13" class="node">
<title>src/lib/admin/layout/svg/home.svelte</title>
<g id="a_node13"><a xlink:href="src/lib/admin/layout/svg/home.svelte" xlink:title="home.svelte">
<path fill="#febbff" stroke="black" d="M345.5,-252C345.5,-252 291.5,-252 291.5,-252 288.5,-252 285.5,-249 285.5,-246 285.5,-246 285.5,-240 285.5,-240 285.5,-237 288.5,-234 291.5,-234 291.5,-234 345.5,-234 345.5,-234 348.5,-234 351.5,-237 351.5,-240 351.5,-240 351.5,-246 351.5,-246 351.5,-249 348.5,-252 345.5,-252"/>
<text text-anchor="start" x="293.5" y="-240.8" font-family="Helvetica,sans-Serif" font-size="9.00">home.svelte</text>
</a>
</g>
</g>
<!-- src/lib/admin/layout/Header.svelte&#45;&gt;src/lib/admin/layout/svg/home.svelte -->
<g id="edge7" class="edge">
<title>src/lib/admin/layout/Header.svelte&#45;&gt;src/lib/admin/layout/svg/home.svelte</title>
<path fill="none" stroke="#000000" stroke-width="2" stroke-opacity="0.200000" d="M236.73,-282.54C239.38,-280.96 241.86,-279.12 244,-277 250.51,-270.55 244.98,-263.89 252,-258 258.9,-252.2 267.6,-248.54 276.39,-246.25"/>
<polygon fill="#000000" fill-opacity="0.200000" stroke="#000000" stroke-width="2" stroke-opacity="0.200000" points="276.74,-248.32 282.18,-245.02 275.87,-244.21 276.74,-248.32"/>
</g>
<!-- src/lib/admin/layout/svg/logout.svelte -->
<g id="node14" class="node">
<title>src/lib/admin/layout/svg/logout.svelte</title>
<g id="a_node14"><a xlink:href="src/lib/admin/layout/svg/logout.svelte" xlink:title="logout.svelte">
<path fill="#febbff" stroke="black" d="M346.5,-222C346.5,-222 290.5,-222 290.5,-222 287.5,-222 284.5,-219 284.5,-216 284.5,-216 284.5,-210 284.5,-210 284.5,-207 287.5,-204 290.5,-204 290.5,-204 346.5,-204 346.5,-204 349.5,-204 352.5,-207 352.5,-210 352.5,-210 352.5,-216 352.5,-216 352.5,-219 349.5,-222 346.5,-222"/>
<text text-anchor="start" x="292.5" y="-210.8" font-family="Helvetica,sans-Serif" font-size="9.00">logout.svelte</text>
</a>
</g>
</g>
<!-- src/lib/admin/layout/Header.svelte&#45;&gt;src/lib/admin/layout/svg/logout.svelte -->
<g id="edge8" class="edge">
<title>src/lib/admin/layout/Header.svelte&#45;&gt;src/lib/admin/layout/svg/logout.svelte</title>
<path fill="none" stroke="#000000" stroke-width="2" stroke-opacity="0.200000" d="M237.96,-282.57C240.23,-280.99 242.3,-279.15 244,-277 257.73,-259.72 236.9,-244.09 252,-228 258.17,-221.43 266.58,-217.46 275.31,-215.12"/>
<polygon fill="#000000" fill-opacity="0.200000" stroke="#000000" stroke-width="2" stroke-opacity="0.200000" points="275.68,-217.18 281.13,-213.9 274.82,-213.07 275.68,-217.18"/>
</g>
<!-- src/lib/admin/layout/svg/menu.svelte -->
<g id="node15" class="node">
<title>src/lib/admin/layout/svg/menu.svelte</title>
<g id="a_node15"><a xlink:href="src/lib/admin/layout/svg/menu.svelte" xlink:title="menu.svelte">
<path fill="#febbff" stroke="black" d="M345.5,-282C345.5,-282 291.5,-282 291.5,-282 288.5,-282 285.5,-279 285.5,-276 285.5,-276 285.5,-270 285.5,-270 285.5,-267 288.5,-264 291.5,-264 291.5,-264 345.5,-264 345.5,-264 348.5,-264 351.5,-267 351.5,-270 351.5,-270 351.5,-276 351.5,-276 351.5,-279 348.5,-282 345.5,-282"/>
<text text-anchor="start" x="293.5" y="-270.8" font-family="Helvetica,sans-Serif" font-size="9.00">menu.svelte</text>
</a>
</g>
</g>
<!-- src/lib/admin/layout/Header.svelte&#45;&gt;src/lib/admin/layout/svg/menu.svelte -->
<g id="edge9" class="edge">
<title>src/lib/admin/layout/Header.svelte&#45;&gt;src/lib/admin/layout/svg/menu.svelte</title>
<path fill="none" stroke="#000000" stroke-width="2" stroke-opacity="0.200000" d="M243.82,-285.73C254.29,-283.92 265.77,-281.93 276.5,-280.08"/>
<polygon fill="#000000" fill-opacity="0.200000" stroke="#000000" stroke-width="2" stroke-opacity="0.200000" points="276.75,-282.17 282.3,-279.08 276.03,-278.03 276.75,-282.17"/>
</g>
<!-- src/lib/admin/layout/Meta.svelte -->
<g id="node16" class="node">
<title>src/lib/admin/layout/Meta.svelte</title>
<g id="a_node16"><a xlink:href="src/lib/admin/layout/Meta.svelte" xlink:title="Meta.svelte">
<path fill="#febbff" stroke="black" d="M232,-271C232,-271 181,-271 181,-271 178,-271 175,-268 175,-265 175,-265 175,-259 175,-259 175,-256 178,-253 181,-253 181,-253 232,-253 232,-253 235,-253 238,-256 238,-259 238,-259 238,-265 238,-265 238,-268 235,-271 232,-271"/>
<text text-anchor="start" x="183" y="-259.8" font-family="Helvetica,sans-Serif" font-size="9.00">Meta.svelte</text>
</a>
</g>
</g>
<!-- src/lib/admin/layout/Meta.svelte&#45;&gt;src/lib/admin/layout/svg/dbLogo.svelte -->
<g id="edge11" class="edge">
<title>src/lib/admin/layout/Meta.svelte&#45;&gt;src/lib/admin/layout/svg/dbLogo.svelte</title>
<path fill="none" stroke="#000000" stroke-width="2" stroke-opacity="0.200000" d="M237.96,-252.57C240.23,-250.99 242.3,-249.15 244,-247 257.73,-229.72 236.9,-214.09 252,-198 257.51,-192.13 264.81,-188.33 272.54,-185.92"/>
<polygon fill="#000000" fill-opacity="0.200000" stroke="#000000" stroke-width="2" stroke-opacity="0.200000" points="272.77,-188.03 278.09,-184.54 271.76,-183.95 272.77,-188.03"/>
</g>
<!-- src/lib/admin/layout/Sidebar.svelte -->
<g id="node17" class="node">
<title>src/lib/admin/layout/Sidebar.svelte</title>
<g id="a_node17"><a xlink:href="src/lib/admin/layout/Sidebar.svelte" xlink:title="Sidebar.svelte">
<path fill="#febbff" stroke="black" d="M238,-398C238,-398 175,-398 175,-398 172,-398 169,-395 169,-392 169,-392 169,-386 169,-386 169,-383 172,-380 175,-380 175,-380 238,-380 238,-380 241,-380 244,-383 244,-386 244,-386 244,-392 244,-392 244,-395 241,-398 238,-398"/>
<text text-anchor="start" x="177" y="-386.8" font-family="Helvetica,sans-Serif" font-size="9.00">Sidebar.svelte</text>
</a>
</g>
</g>
<!-- src/lib/admin/layout/modals/Dialog.svelte -->
<g id="node18" class="node">
<title>src/lib/admin/layout/modals/Dialog.svelte</title>
<g id="a_node18"><a xlink:href="src/lib/admin/layout/modals/Dialog.svelte" xlink:title="Dialog.svelte">
<path fill="#febbff" stroke="black" d="M347.5,-428C347.5,-428 289.5,-428 289.5,-428 286.5,-428 283.5,-425 283.5,-422 283.5,-422 283.5,-416 283.5,-416 283.5,-413 286.5,-410 289.5,-410 289.5,-410 347.5,-410 347.5,-410 350.5,-410 353.5,-413 353.5,-416 353.5,-416 353.5,-422 353.5,-422 353.5,-425 350.5,-428 347.5,-428"/>
<text text-anchor="start" x="291.5" y="-416.8" font-family="Helvetica,sans-Serif" font-size="9.00">Dialog.svelte</text>
</a>
</g>
</g>
<!-- src/lib/admin/layout/Sidebar.svelte&#45;&gt;src/lib/admin/layout/modals/Dialog.svelte -->
<g id="edge12" class="edge">
<title>src/lib/admin/layout/Sidebar.svelte&#45;&gt;src/lib/admin/layout/modals/Dialog.svelte</title>
<path fill="none" stroke="#000000" stroke-width="2" stroke-opacity="0.200000" d="M242.3,-398.49C252.64,-401.31 264.07,-404.43 274.84,-407.36"/>
<polygon fill="#000000" fill-opacity="0.200000" stroke="#000000" stroke-width="2" stroke-opacity="0.200000" points="274.04,-409.32 280.38,-408.88 275.14,-405.27 274.04,-409.32"/>
</g>
<!-- src/lib/admin/layout/modals/Form.svelte -->
<g id="node19" class="node">
<title>src/lib/admin/layout/modals/Form.svelte</title>
<g id="a_node19"><a xlink:href="src/lib/admin/layout/modals/Form.svelte" xlink:title="Form.svelte">
<path fill="#febbff" stroke="black" d="M344.5,-488C344.5,-488 292.5,-488 292.5,-488 289.5,-488 286.5,-485 286.5,-482 286.5,-482 286.5,-476 286.5,-476 286.5,-473 289.5,-470 292.5,-470 292.5,-470 344.5,-470 344.5,-470 347.5,-470 350.5,-473 350.5,-476 350.5,-476 350.5,-482 350.5,-482 350.5,-485 347.5,-488 344.5,-488"/>
<text text-anchor="start" x="294.5" y="-476.8" font-family="Helvetica,sans-Serif" font-size="9.00">Form.svelte</text>
</a>
</g>
</g>
<!-- src/lib/admin/layout/Sidebar.svelte&#45;&gt;src/lib/admin/layout/modals/Form.svelte -->
<g id="edge13" class="edge">
<title>src/lib/admin/layout/Sidebar.svelte&#45;&gt;src/lib/admin/layout/modals/Form.svelte</title>
<path fill="none" stroke="#000000" stroke-width="2" stroke-opacity="0.200000" d="M210.3,-398.26C215.64,-414.29 228.88,-447.14 252,-464 259.35,-469.36 268.3,-472.85 277.2,-475.11"/>
<polygon fill="#000000" fill-opacity="0.200000" stroke="#000000" stroke-width="2" stroke-opacity="0.200000" points="276.75,-477.16 283.05,-476.35 277.62,-473.05 276.75,-477.16"/>
</g>
<!-- src/lib/admin/layout/sidebar/DatabaseExplorer.svelte -->
<g id="node20" class="node">
<title>src/lib/admin/layout/sidebar/DatabaseExplorer.svelte</title>
<g id="a_node20"><a xlink:href="src/lib/admin/layout/sidebar/DatabaseExplorer.svelte" xlink:title="DatabaseExplorer.svelte">
<path fill="#febbff" stroke="black" d="M371,-368C371,-368 266,-368 266,-368 263,-368 260,-365 260,-362 260,-362 260,-356 260,-356 260,-353 263,-350 266,-350 266,-350 371,-350 371,-350 374,-350 377,-353 377,-356 377,-356 377,-362 377,-362 377,-365 374,-368 371,-368"/>
<text text-anchor="start" x="268" y="-356.8" font-family="Helvetica,sans-Serif" font-size="9.00">DatabaseExplorer.svelte</text>
</a>
</g>
</g>
<!-- src/lib/admin/layout/Sidebar.svelte&#45;&gt;src/lib/admin/layout/sidebar/DatabaseExplorer.svelte -->
<g id="edge14" class="edge">
<title>src/lib/admin/layout/Sidebar.svelte&#45;&gt;src/lib/admin/layout/sidebar/DatabaseExplorer.svelte</title>
<path fill="none" stroke="#000000" stroke-width="2" stroke-opacity="0.200000" d="M242.3,-379.51C252.54,-376.72 263.85,-373.63 274.53,-370.72"/>
<polygon fill="#000000" fill-opacity="0.200000" stroke="#000000" stroke-width="2" stroke-opacity="0.200000" points="274.77,-372.83 280,-369.23 273.66,-368.78 274.77,-372.83"/>
</g>
<!-- src/lib/admin/layout/sidebar/DatabaseExplorer.svelte&#45;&gt;src/lib/admin/functions/stores.ts -->
<g id="edge18" class="edge">
<title>src/lib/admin/layout/sidebar/DatabaseExplorer.svelte&#45;&gt;src/lib/admin/functions/stores.ts</title>
<path fill="none" stroke="#000000" stroke-width="2" stroke-opacity="0.200000" d="M346.74,-368.44C360.7,-374.79 376.52,-384.67 385,-399 394.85,-415.66 381.69,-557.3 393,-573 398.35,-580.42 406.56,-585.34 415.1,-588.6"/>
<polygon fill="#000000" fill-opacity="0.200000" stroke="#000000" stroke-width="2" stroke-opacity="0.200000" points="414.42,-590.59 420.78,-590.42 415.7,-586.59 414.42,-590.59"/>
</g>
<!-- src/lib/admin/layout/sidebar/DatabaseExplorer.svelte&#45;&gt;src/lib/admin/layout/DataTable.svelte -->
<g id="edge16" class="edge">
<title>src/lib/admin/layout/sidebar/DatabaseExplorer.svelte&#45;&gt;src/lib/admin/layout/DataTable.svelte</title>
<path fill="none" stroke="#000000" stroke-width="2" stroke-opacity="0.200000" d="M377.33,-350.23C380,-348.99 382.58,-347.59 385,-346 413.59,-327.23 433.15,-291.12 442.88,-269.53"/>
<polygon fill="#000000" fill-opacity="0.200000" stroke="#000000" stroke-width="2" stroke-opacity="0.200000" points="444.8,-270.38 445.24,-264.04 440.94,-268.72 444.8,-270.38"/>
</g>
<!-- src/lib/admin/layout/sidebar/DatabaseExplorer.svelte&#45;&gt;src/lib/admin/layout/EmptyComponent.svelte -->
<g id="edge17" class="edge">
<title>src/lib/admin/layout/sidebar/DatabaseExplorer.svelte&#45;&gt;src/lib/admin/layout/EmptyComponent.svelte</title>
<path fill="none" stroke="#000000" stroke-width="2" stroke-opacity="0.200000" d="M377.5,-359C379.55,-359 381.6,-359 383.66,-359"/>
<polygon fill="#000000" fill-opacity="0.200000" stroke="#000000" stroke-width="2" stroke-opacity="0.200000" points="383.64,-361.1 389.64,-359 383.64,-356.9 383.64,-361.1"/>
</g>
<!-- src/lib/admin/layout/modals/CloseButton.svelte -->
<g id="node21" class="node">
<title>src/lib/admin/layout/modals/CloseButton.svelte</title>
<g id="a_node21"><a xlink:href="src/lib/admin/layout/modals/CloseButton.svelte" xlink:title="no&#45;orphans">
<path fill="#ccffcc" stroke="orange" d="M359,-458C359,-458 278,-458 278,-458 275,-458 272,-455 272,-452 272,-452 272,-446 272,-446 272,-443 275,-440 278,-440 278,-440 359,-440 359,-440 362,-440 365,-443 365,-446 365,-446 365,-452 365,-452 365,-455 362,-458 359,-458"/>
<text text-anchor="start" x="280" y="-446.8" font-family="Helvetica,sans-Serif" font-size="9.00" fill="orange">CloseButton.svelte</text>
</a>
</g>
</g>
<!-- src/lib/admin/layout/modals/Login.svelte -->
<g id="node22" class="node">
<title>src/lib/admin/layout/modals/Login.svelte</title>
<g id="a_node22"><a xlink:href="src/lib/admin/layout/modals/Login.svelte" xlink:title="Login.svelte">
<path fill="#febbff" stroke="black" d="M345.5,-518C345.5,-518 291.5,-518 291.5,-518 288.5,-518 285.5,-515 285.5,-512 285.5,-512 285.5,-506 285.5,-506 285.5,-503 288.5,-500 291.5,-500 291.5,-500 345.5,-500 345.5,-500 348.5,-500 351.5,-503 351.5,-506 351.5,-506 351.5,-512 351.5,-512 351.5,-515 348.5,-518 345.5,-518"/>
<text text-anchor="start" x="293.5" y="-506.8" font-family="Helvetica,sans-Serif" font-size="9.00">Login.svelte</text>
</a>
</g>
</g>
<!-- src/lib/admin/layout/modals/Login.svelte&#45;&gt;src/lib/admin/functions/stores.ts -->
<g id="edge15" class="edge">
<title>src/lib/admin/layout/modals/Login.svelte&#45;&gt;src/lib/admin/functions/stores.ts</title>
<path fill="none" stroke="#000000" stroke-width="2" stroke-opacity="0.200000" d="M351.84,-508.03C363.79,-509.38 376.49,-513.14 385,-522 400.89,-538.55 378.59,-555.15 393,-573 398.65,-580 406.8,-584.77 415.18,-588.03"/>
<polygon fill="#000000" fill-opacity="0.200000" stroke="#000000" stroke-width="2" stroke-opacity="0.200000" points="414.33,-589.96 420.69,-589.85 415.65,-585.97 414.33,-589.96"/>
</g>
<!-- src/lib/functions/matchMedia.ts -->
<g id="node23" class="node">
<title>src/lib/functions/matchMedia.ts</title>
<g id="a_node23"><a xlink:href="src/lib/functions/matchMedia.ts" xlink:title="matchMedia.ts">
<path fill="#ddfeff" stroke="black" d="M603,-69C603,-69 539,-69 539,-69 536,-69 533,-66 533,-63 533,-63 533,-57 533,-57 533,-54 536,-51 539,-51 539,-51 603,-51 603,-51 606,-51 609,-54 609,-57 609,-57 609,-63 609,-63 609,-66 606,-69 603,-69"/>
<text text-anchor="start" x="541" y="-57.8" font-family="Helvetica,sans-Serif" font-size="9.00">matchMedia.ts</text>
</a>
</g>
</g>
<!-- src/routes/(admin)/admin/+layout.svelte -->
<g id="node24" class="node">
<title>src/routes/(admin)/admin/+layout.svelte</title>
<g id="a_node24"><a xlink:href="src/routes/(admin)/admin/+layout.svelte" xlink:title="+layout.svelte">
<path fill="#febbff" stroke="black" d="M107,-320C107,-320 46,-320 46,-320 43,-320 40,-317 40,-314 40,-314 40,-308 40,-308 40,-305 43,-302 46,-302 46,-302 107,-302 107,-302 110,-302 113,-305 113,-308 113,-308 113,-314 113,-314 113,-317 110,-320 107,-320"/>
<text text-anchor="start" x="48" y="-308.8" font-family="Helvetica,sans-Serif" font-size="9.00">+layout.svelte</text>
</a>
</g>
</g>
<!-- src/routes/(admin)/admin/+layout.svelte&#45;&gt;src/lib/admin/layout/Footer.svelte -->
<g id="edge19" class="edge">
<title>src/routes/(admin)/admin/+layout.svelte&#45;&gt;src/lib/admin/layout/Footer.svelte</title>
<path fill="none" stroke="#000000" stroke-width="2" stroke-opacity="0.200000" d="M87.7,-301.58C99.62,-290.53 119.9,-271.59 137,-255 140.61,-251.5 140.62,-249.47 145,-247 150.57,-243.85 156.8,-241.36 163.07,-239.39"/>
<polygon fill="#000000" fill-opacity="0.200000" stroke="#000000" stroke-width="2" stroke-opacity="0.200000" points="163.48,-241.45 168.7,-237.82 162.36,-237.41 163.48,-241.45"/>
</g>
<!-- src/routes/(admin)/admin/+layout.svelte&#45;&gt;src/lib/admin/layout/Header.svelte -->
<g id="edge20" class="edge">
<title>src/routes/(admin)/admin/+layout.svelte&#45;&gt;src/lib/admin/layout/Header.svelte</title>
<path fill="none" stroke="#000000" stroke-width="2" stroke-opacity="0.200000" d="M113.5,-305.66C128.08,-303.49 145.09,-300.97 160.48,-298.68"/>
<polygon fill="#000000" fill-opacity="0.200000" stroke="#000000" stroke-width="2" stroke-opacity="0.200000" points="160.71,-300.77 166.34,-297.81 160.09,-296.62 160.71,-300.77"/>
</g>
<!-- src/routes/(admin)/admin/+layout.svelte&#45;&gt;src/lib/admin/layout/Meta.svelte -->
<g id="edge21" class="edge">
<title>src/routes/(admin)/admin/+layout.svelte&#45;&gt;src/lib/admin/layout/Meta.svelte</title>
<path fill="none" stroke="#000000" stroke-width="2" stroke-opacity="0.200000" d="M93.68,-301.55C107.07,-294.06 126.79,-283.75 145,-277 151.78,-274.49 159.15,-272.26 166.33,-270.35"/>
<polygon fill="#000000" fill-opacity="0.200000" stroke="#000000" stroke-width="2" stroke-opacity="0.200000" points="166.39,-272.5 171.7,-268.99 165.36,-268.43 166.39,-272.5"/>
</g>
<!-- src/routes/(admin)/admin/+layout.svelte&#45;&gt;src/lib/admin/layout/Sidebar.svelte -->
<g id="edge22" class="edge">
<title>src/routes/(admin)/admin/+layout.svelte&#45;&gt;src/lib/admin/layout/Sidebar.svelte</title>
<path fill="none" stroke="#000000" stroke-width="2" stroke-opacity="0.200000" d="M113.19,-316.94C121.31,-319.12 129.69,-322.05 137,-326 159.23,-338.01 179.87,-358.86 192.56,-373.27"/>
<polygon fill="#000000" fill-opacity="0.200000" stroke="#000000" stroke-width="2" stroke-opacity="0.200000" points="190.65,-374.27 196.15,-377.46 193.84,-371.54 190.65,-374.27"/>
</g>
<!-- src/routes/(admin)/admin/+layout.svelte&#45;&gt;src/lib/functions/matchMedia.ts -->
<g id="edge23" class="edge">
<title>src/routes/(admin)/admin/+layout.svelte&#45;&gt;src/lib/functions/matchMedia.ts</title>
<path fill="none" stroke="#000000" stroke-width="2" stroke-opacity="0.200000" d="M92.72,-301.55C106.91,-291.8 127.3,-275.2 137,-255 146.65,-234.9 132.53,-173.48 145,-155 213.92,-52.84 273.06,-59.31 393,-31 446.64,-18.34 463.61,-17.35 517,-31 528.59,-33.96 540.37,-40.04 549.88,-45.87"/>
<polygon fill="#000000" fill-opacity="0.200000" stroke="#000000" stroke-width="2" stroke-opacity="0.200000" points="548.55,-47.51 554.73,-49 550.82,-43.98 548.55,-47.51"/>
</g>
<!-- src/routes/(admin)/admin/+layout.ts -->
<g id="node25" class="node">
<title>src/routes/(admin)/admin/+layout.ts</title>
<g id="a_node25"><a xlink:href="src/routes/(admin)/admin/+layout.ts" xlink:title="no&#45;orphans">
<path fill="#ccffcc" stroke="orange" d="M98.5,-350C98.5,-350 54.5,-350 54.5,-350 51.5,-350 48.5,-347 48.5,-344 48.5,-344 48.5,-338 48.5,-338 48.5,-335 51.5,-332 54.5,-332 54.5,-332 98.5,-332 98.5,-332 101.5,-332 104.5,-335 104.5,-338 104.5,-338 104.5,-344 104.5,-344 104.5,-347 101.5,-350 98.5,-350"/>
<text text-anchor="start" x="56.5" y="-338.8" font-family="Helvetica,sans-Serif" font-size="9.00" fill="orange">+layout.ts</text>
</a>
</g>
</g>
<!-- src/routes/(admin)/admin/+page.svelte -->
<g id="node26" class="node">
<title>src/routes/(admin)/admin/+page.svelte</title>
<g id="a_node26"><a xlink:href="src/routes/(admin)/admin/+page.svelte" xlink:title="+page.svelte">
<path fill="#febbff" stroke="black" d="M105,-380C105,-380 48,-380 48,-380 45,-380 42,-377 42,-374 42,-374 42,-368 42,-368 42,-365 45,-362 48,-362 48,-362 105,-362 105,-362 108,-362 111,-365 111,-368 111,-368 111,-374 111,-374 111,-377 108,-380 105,-380"/>
<text text-anchor="start" x="50" y="-368.8" font-family="Helvetica,sans-Serif" font-size="9.00">+page.svelte</text>
</a>
</g>
</g>
<!-- src/routes/(admin)/admin/+page.svelte&#45;&gt;src/lib/admin/functions/stores.ts -->
<g id="edge24" class="edge">
<title>src/routes/(admin)/admin/+page.svelte&#45;&gt;src/lib/admin/functions/stores.ts</title>
<path fill="none" stroke="#000000" stroke-width="2" stroke-opacity="0.200000" d="M81.15,-380.21C89.86,-401.43 113.51,-454.71 145,-491 184.27,-536.25 196.41,-550.65 252,-573 305.74,-594.6 373.89,-597.36 414.61,-596.68"/>
<polygon fill="#000000" fill-opacity="0.200000" stroke="#000000" stroke-width="2" stroke-opacity="0.200000" points="414.63,-598.78 420.58,-596.54 414.53,-594.58 414.63,-598.78"/>
</g>
<!-- src/routes/(admin)/admin/+page.svelte&#45;&gt;src/lib/admin/layout/modals/Login.svelte -->
<g id="edge25" class="edge">
<title>src/routes/(admin)/admin/+page.svelte&#45;&gt;src/lib/admin/layout/modals/Login.svelte</title>
<path fill="none" stroke="#000000" stroke-width="2" stroke-opacity="0.200000" d="M81.08,-380.37C89.19,-400.28 110.94,-446.83 145,-470 184.37,-496.78 239.33,-505.43 276.56,-508.08"/>
<polygon fill="#000000" fill-opacity="0.200000" stroke="#000000" stroke-width="2" stroke-opacity="0.200000" points="276.01,-510.15 282.13,-508.42 276.27,-505.96 276.01,-510.15"/>
</g>
<!-- src/routes/(app)/+layout.svelte -->
<g id="node27" class="node">
<title>src/routes/(app)/+layout.svelte</title>
<g id="a_node27"><a xlink:href="src/routes/(app)/+layout.svelte" xlink:title="no&#45;orphans">
<path fill="#ccffcc" stroke="orange" d="M107,-192C107,-192 46,-192 46,-192 43,-192 40,-189 40,-186 40,-186 40,-180 40,-180 40,-177 43,-174 46,-174 46,-174 107,-174 107,-174 110,-174 113,-177 113,-180 113,-180 113,-186 113,-186 113,-189 110,-192 107,-192"/>
<text text-anchor="start" x="48" y="-180.8" font-family="Helvetica,sans-Serif" font-size="9.00" fill="orange">+layout.svelte</text>
</a>
</g>
</g>
<!-- src/routes/(app)/+layout.ts -->
<g id="node28" class="node">
<title>src/routes/(app)/+layout.ts</title>
<g id="a_node28"><a xlink:href="src/routes/(app)/+layout.ts" xlink:title="no&#45;orphans">
<path fill="#ccffcc" stroke="orange" d="M98.5,-162C98.5,-162 54.5,-162 54.5,-162 51.5,-162 48.5,-159 48.5,-156 48.5,-156 48.5,-150 48.5,-150 48.5,-147 51.5,-144 54.5,-144 54.5,-144 98.5,-144 98.5,-144 101.5,-144 104.5,-147 104.5,-150 104.5,-150 104.5,-156 104.5,-156 104.5,-159 101.5,-162 98.5,-162"/>
<text text-anchor="start" x="56.5" y="-150.8" font-family="Helvetica,sans-Serif" font-size="9.00" fill="orange">+layout.ts</text>
</a>
</g>
</g>
<!-- src/routes/(app)/+page.svelte -->
<g id="node29" class="node">
<title>src/routes/(app)/+page.svelte</title>
<g id="a_node29"><a xlink:href="src/routes/(app)/+page.svelte" xlink:title="no&#45;orphans">
<path fill="#ccffcc" stroke="orange" d="M105,-132C105,-132 48,-132 48,-132 45,-132 42,-129 42,-126 42,-126 42,-120 42,-120 42,-117 45,-114 48,-114 48,-114 105,-114 105,-114 108,-114 111,-117 111,-120 111,-120 111,-126 111,-126 111,-129 108,-132 105,-132"/>
<text text-anchor="start" x="50" y="-120.8" font-family="Helvetica,sans-Serif" font-size="9.00" fill="orange">+page.svelte</text>
</a>
</g>
</g>
<!-- src/routes/(app)/text/+page.svelte -->
<g id="node30" class="node">
<title>src/routes/(app)/text/+page.svelte</title>
<g id="a_node30"><a xlink:href="src/routes/(app)/text/+page.svelte" xlink:title="no&#45;orphans">
<path fill="#ccffcc" stroke="orange" d="M105,-226C105,-226 48,-226 48,-226 45,-226 42,-223 42,-220 42,-220 42,-214 42,-214 42,-211 45,-208 48,-208 48,-208 105,-208 105,-208 108,-208 111,-211 111,-214 111,-214 111,-220 111,-220 111,-223 108,-226 105,-226"/>
<text text-anchor="start" x="50" y="-214.8" font-family="Helvetica,sans-Serif" font-size="9.00" fill="orange">+page.svelte</text>
</a>
</g>
</g>
<!-- src/routes/+layout.svelte -->
<g id="node31" class="node">
<title>src/routes/+layout.svelte</title>
<g id="a_node31"><a xlink:href="src/routes/+layout.svelte" xlink:title="no&#45;orphans">
<path fill="#ccffcc" stroke="orange" d="M107,-98C107,-98 46,-98 46,-98 43,-98 40,-95 40,-92 40,-92 40,-86 40,-86 40,-83 43,-80 46,-80 46,-80 107,-80 107,-80 110,-80 113,-83 113,-86 113,-86 113,-92 113,-92 113,-95 110,-98 107,-98"/>
<text text-anchor="start" x="48" y="-86.8" font-family="Helvetica,sans-Serif" font-size="9.00" fill="orange">+layout.svelte</text>
</a>
</g>
</g>
<!-- src/routes/+layout.ts -->
<g id="node32" class="node">
<title>src/routes/+layout.ts</title>
<g id="a_node32"><a xlink:href="src/routes/+layout.ts" xlink:title="no&#45;orphans">
<path fill="#ccffcc" stroke="orange" d="M98.5,-68C98.5,-68 54.5,-68 54.5,-68 51.5,-68 48.5,-65 48.5,-62 48.5,-62 48.5,-56 48.5,-56 48.5,-53 51.5,-50 54.5,-50 54.5,-50 98.5,-50 98.5,-50 101.5,-50 104.5,-53 104.5,-56 104.5,-56 104.5,-62 104.5,-62 104.5,-65 101.5,-68 98.5,-68"/>
<text text-anchor="start" x="56.5" y="-56.8" font-family="Helvetica,sans-Serif" font-size="9.00" fill="orange">+layout.ts</text>
</a>
</g>
</g>
</g>
</svg>
